<?xml version="1.0" encoding="UTF-8"?>
<svg id="_レイヤー_1" data-name="レイヤー 1" xmlns="http://www.w3.org/2000/svg" viewBox="0 0 327.6 62.39">
  <path d="M6.9,49.13c-1.41.26-3.05.73-4.03-.31l-.23-33.72c1.46-3.05,4.17-1.66,6.4,0,8.03,6.02,16.4,13.69,23.98,20.17,3.18,2.72,6.17,5.58,9.34,8.31.99.37.67-1.99.65-2.32-.53-7.87-.54-15.77-.43-23.68.48-1.86,4.66-1.05,4.66-.32v31.71c0,.88-3.7,1.6-4.65.6-11.3-10.54-23.3-20.77-35.68-30.61v30.17Z"/>
  <path d="M50.38,4.79c0-1.64-1.34-2.98-2.98-2.98,0,0-5.86-1.81-22.37-1.81S2.98,1.81,2.98,1.81C1.34,1.81,0,3.15,0,4.79c0,.12,0,.24.02.36-.01.09-.02.18-.02.28v3.38c0,.94.77,1.7,1.7,1.7s1.7-.77,1.7-1.7v-1.04h43.57v1.04c0,.94.77,1.7,1.7,1.7s1.7-.77,1.7-1.7v-3.38c0-.09,0-.19-.02-.28.01-.12.02-.24.02-.36ZM46.44,5.86H4.37c-.53,0-.96-.43-.96-.96s.43-.96.96-.96c0,0,7.07-.78,20.82-.78s21.25.78,21.25.78c.53,0,.96.43.96.96s-.43.96-.96.96Z"/>
  <path d="M0,57.6c0,1.64,1.34,2.98,2.98,2.98,0,0,5.86,1.81,22.37,1.81s22.05-1.81,22.05-1.81c1.64,0,2.98-1.34,2.98-2.98,0-.12,0-.24-.02-.36.01-.09.02-.18.02-.28v-3.38c0-.94-.77-1.7-1.7-1.7s-1.7.77-1.7,1.7v1.04H3.41v-1.04c0-.94-.77-1.7-1.7-1.7s-1.7.77-1.7,1.7v3.38c0,.09,0,.19.02.28-.01.12-.02.24-.02.36ZM3.94,56.53h42.07c.53,0,.96.43.96.96s-.43.96-.96.96c0,0-7.07.78-20.82.78s-21.25-.78-21.25-.78c-.53,0-.96-.43-.96-.96s.43-.96.96-.96Z"/>
  <g>
    <path d="M79.2,45.03l-.77-.52-.29-.55-.11-.59.04-.66.07-.7-.04-.7v-.48l-.04-.66v-.7l.07-.52-.04-.96-.07-.7-.11-.7v-1.1l.04-.63-.04-.63.04-.66v-.4l.07-1.03v-1.1l-.07-.55v-.33l.07-.59-.07-.66v-.26l.07-.66-.04-.92.04-.81-.07-.63.04-.37-.04-.48-.04-.74-.04-.66v-.99l.04-.7.04-.44v-.37l.07-.59.07-.48.18-.15.66-.37.55-.04.7-.04.81.07.77.15.48.33.59.74.37.55.63.88.52.81.48.59.48.74.51.66.22.29.37.66.4.51.63.7.48.66.4.44.74.88.88,1.18.55.88.88,1.18.37.4.29.44.48.7.66.77.66,1.03.37.44.26.33.37.29h.4l.11-.18.07-.81.04-.77v-3.68l.07-1.03v-.66l-.04-.7v-.66l.07-.52v-2.46l-.07-.37.04-.59-.04-.74v-.59l-.04-.55v-1.03l.04-.7.18-.66.29-.22.4-.22.33-.07.48-.04.4-.11h1.07l.44.22.33.37.26.59.07.96-.07.85-.04.4.07.7-.04.55.04.52-.04.55.04.37v1.44l.04,1.07v1.91l.11.55v.33l-.07.48.07.77-.04.4.04.33-.11.4v4.34l-.04,1.03.04.55v4.16l.11.63-.07.88-.4.37-.29.15-.37.04-.81-.07-1.18.04-.77-.15-.48-.33-.52-.66-.63-.85-1.47-2.1-.7-.92-.37-.52-.81-1.21-.88-1.25-.66-.85-.55-.63-.37-.55-.33-.33-.77-1.1-.48-.59-.33-.33-.26-.48-.44-.48-.85-1.14-.7-1.03-.44-.59-.48-.52-.29-.4-.22-.22-.37-.15-.33.18-.04.7.04.85v.74l-.04.77.07,1.14v1.51l.04,1.51.04.92.11.7-.04,1.14v1.54l-.07,1.03v.55l-.04.77.04.59-.04.48v.66l-.07.59-.26.48-.37.26-.33.11-.59.11h-.48l-.26.07-.77-.07Z"/>
    <path d="M111.47,45.47l-.48-.11-.66-.33-.52-.4-.37-.44-.15-.44v-.66l.33-.66.22-.55.18-.4.22-.44.33-.77.22-.59.7-1.4.37-.81.33-.85.59-1.14.37-.85.26-.52.26-.55.29-.63.52-1.32.44-.77.29-.81.52-1.1.59-1.36.33-.74.55-1.4.4-.85.18-.55.33-.63.26-.52.07-.29.15-.37.18-.52.26-.37.22-.44.22-.4.15-.29.26-.44.44-.37.92-.18h.99l.48.11.4.37.26.48.22.44.37.85.37.81.7,1.36.22.59.26.48.22.66.29.66.18.52.26.52.4.92.4.81.26.66.26.44.15.4.26.55.33.59.22.59.22.63.22.37.18.48.37.66.29.74.48,1.14.66,1.25.37.88.26.55.15.33.15.48.44.88.33.7.18.29.33.7.26.77.18.63-.15.81-.4.48-.74.37-1.29.33-.85-.18-.33-.29-.37-.37-.11-.48-.33-.7-.4-.85-.22-.4-.33-.74-.4-.85-.15-.33-.26-.44-.33-.59-.26-.48-.37-.26-.74-.07-.92.04h-4.3l-1.21-.04-.96.07-.52-.04-.63.07-.59.04-.48.26-.22.33-.74,1.47-.37.66-.11.4-.18.37-.22.52-.29.63-.18.55-.37.59-.44.66-.4.33-.59.15-.63-.04ZM124.53,34.28l.04-.04.11-.04.15-.33-.11-.66-.22-.55-.81-1.43-.37-.7-.48-1.18-.29-.7-.26-.66-.4-.96-.44-.37-.29.59-.29.92-.62,1.4-.48.99-.33.92-.29.66-.37.74-.04.29-.07.33v.37l.26.26.63.04h.66l1.03.07,2.46.07.85-.04Z"/>
    <path d="M152.74,45.76l-.66-.07-.7-.22-.77-.15-.37-.11-.59-.18-1.03-.29-.7-.29-1.32-.74-.74-.59-.51-.33-.4-.37-.7-.59-.63-.66-.44-.63-.59-.74-.55-.85-.44-.99-.29-.81-.22-.44-.15-.48-.18-.74-.11-.59-.07-.4-.11-.63-.07-.7-.07-.33.04-.44-.07-.77.07-.59v-.29l.04-.63.15-.59.07-.55.15-.52.07-.4.15-.48.18-.33.11-.33.07-.26.29-.55.33-.59.22-.33.37-.7.59-.7.51-.74.85-.81.85-.7.37-.33.59-.37.74-.48.4-.22.44-.29.41-.22.4-.15.63-.18.92-.29.88-.29.77-.11.48-.11h.85l.74-.04.85.11.92.07.26.07.55.07.74.18.55.11.37.11.92.33.55.29.41.18.33.22,1.1.52.7.55.59.4.41.37.26.22.44.55.55.7.26.52.11.55-.22.74-.37.55-.52.4-.77.4-.81.04-.51-.18-.55-.48-.74-.7-.85-.7-.92-.59-.85-.48-.66-.26-.59-.18-2.06-.37-.7-.07-.18.04-.81.07-1.25.22-.81.18-.55.26-.81.4-.77.48-.44.37-.33.33-.29.26-1.03,1.18-.18.33-.26.37-.4.88-.29.74-.18.59-.26.81-.15,1.07v1.25l.11.63.07.88.07.62.15.59.22.52.22.44.26.37.22.4.33.33.26.33.33.52.29.37.55.48,1.07.88,1.21.7,1.03.4.99.26.66.15.85.07,1.43-.11.74-.11.96-.26.7-.22,1.25-.59.77-.52.55-.52.7-.77.33-.48.37-.55.37-.66.37-.74.15-.59.07-.48-.04-.37-.48-.29h-1.51l-1.03.04-.37-.07h-1.36l-1.1.04-.44.04-.52.04-.33-.07h-.55l-.77-.07-.59-.22-.29-.44-.15-.59-.11-.99v-.74l.15-.4.29-.44.37-.22.37-.11h1.51l1.4-.11h1.1l.48-.04h.81l2.61.04h.7l1.47.07,1.29.11.37.11.41.22.55.59.37,1.14v1.54l-.15,1.32-.15.7-.11.33-.07.52-.33.85-.26.81-.22.37-.22.52-.33.59-.22.37-.29.48-.44.55-.37.37-.59.7-.77.74-.37.29-.4.29-.37.18-.22.18-.7.44-.29.11-.74.37-.74.26-.55.11-.52.18-.29.07-.33.04-.55.15h-.62l-.33.11-.7.04h-.7l-.44.07-.81-.04Z"/>
    <path d="M175.85,45.47l-.48-.11-.66-.33-.51-.4-.37-.44-.15-.44v-.66l.33-.66.22-.55.18-.4.22-.44.33-.77.22-.59.7-1.4.37-.81.33-.85.59-1.14.37-.85.26-.52.26-.55.29-.63.51-1.32.44-.77.29-.81.52-1.1.59-1.36.33-.74.55-1.4.4-.85.18-.55.33-.63.26-.52.07-.29.15-.37.18-.52.26-.37.22-.44.22-.4.15-.29.26-.44.44-.37.92-.18h.99l.48.11.41.37.26.48.22.44.37.85.37.81.7,1.36.22.59.26.48.22.66.29.66.18.52.26.52.4.92.41.81.26.66.26.44.15.4.26.55.33.59.22.59.22.63.22.37.18.48.37.66.29.74.48,1.14.66,1.25.37.88.26.55.15.33.15.48.44.88.33.7.18.29.33.7.26.77.18.63-.15.81-.41.48-.74.37-1.29.33-.85-.18-.33-.29-.37-.37-.11-.48-.33-.7-.4-.85-.22-.4-.33-.74-.41-.85-.15-.33-.26-.44-.33-.59-.26-.48-.37-.26-.74-.07-.92.04h-4.3l-1.21-.04-.96.07-.52-.04-.62.07-.59.04-.48.26-.22.33-.74,1.47-.37.66-.11.4-.18.37-.22.52-.29.63-.18.55-.37.59-.44.66-.4.33-.59.15-.62-.04ZM188.91,34.28l.04-.04.11-.04.15-.33-.11-.66-.22-.55-.81-1.43-.37-.7-.48-1.18-.29-.7-.26-.66-.4-.96-.44-.37-.29.59-.29.92-.62,1.4-.48.99-.33.92-.29.66-.37.74-.04.29-.07.33v.37l.26.26.62.04h.66l1.03.07,2.46.07.85-.04Z"/>
    <path d="M226.76,45.21l-.41-.26-1.18-1.4-.33-.37-.26-.44-.4-.52-.37-.63-.74-.81-.51-.77-.29-.29-.55-.74-.52-.63-.18-.33-.52-.7-.7-.99-.63-.7-.29-.37-.29-.33-.29-.4-.4-.44-.37-.59-.51-.18-.52.4-.33.33-.37.44-.4.33-.44.48-.44.44-.48.52-.81.74-.77.81-.22,1.07.04.81.04.77-.07.96.04.81-.04.33v.44l-.04.7-.07.48-.4.48-.77.4-1.03.07-.74-.04-.44-.18-.48-.29-.11-.29-.07-.29-.15-.85.04-.33v-.74l-.07-1.14v-4.23l.04-.63-.04-1.07v-4.75l.04-.99v-1.62l-.07-.77.04-.4-.07-.55-.04-.88v-.99l.04-.92-.04-.74.04-.88v-.66l.04-.4.07-.33.18-.44.4-.33.59-.15.37-.04.4.04h.81l.59.07.33.18.4.48.15.48.04.96.04.85v2.1l-.04,1.4.04,1.1-.04.81.04.96-.07.77.04.96.04.7v.52l.63-.07.74-.81.48-.44.59-.63.85-.81.88-.88.59-.66.66-.63.51-.52,1.4-1.29.81-.77.4-.4.63-.55.55-.66.7-.7.59-.55.4-.37.41-.48.62-.62.59-.52.22-.11.48-.15.92.18.55.4.33.29.37.29.18.26.22.4-.04.7-.29.66-.29.37-.29.33-.4.4-.59.63-2.06,2.06-1.07,1.14-.37.4-.55.48-.62.66-.59.59-.33.48-.11.48.26.55.22.33.4.55.44.7.33.4.33.44.29.33.29.44.29.4.33.44.33.4.44.48.52.7.37.59.26.37.29.33.26.4.41.55.4.52.15.26.33.4.51.7.7.88.59.88.22.77-.18.55-.26.33-.63.55-.77.55-.7.26-.59-.04Z"/>
    <path d="M248.77,45.62l-.44-.11-.48-.07-1.1-.26-.81-.29-.55-.26-.37-.11-.55-.37-.51-.26-.4-.33-.48-.4-.26-.37-.44-.44-.48-.59-.26-.48-.18-.37-.11-.33-.15-.55-.26-.77-.18-.7-.04-.4-.11-.29.04-.59v-1.25l-.07-.55v-.22l-.04-.4-.04-.66.07-.66.04-.7v-.66l-.07-.59.11-.26-.04-.37v-.99l-.04-.4v-.33l-.07-.48v-1.55l.04-.48v-.33l-.04-.52-.04-.48v-2.61l-.04-.52.07-.52-.04-.66.04-.66.07-.55.15-.29.37-.26.7-.22h.59l.41-.07.37.07.52.15.44.15.37.29.11.4-.04.4.07.37.04.63v.59l-.07.18.04.37v.99l.07.48v.63l.04.29.04.4-.07.37v.4l-.04.37.04.99v.96l.04.22.04.29-.04.22v.4l-.04.4.07.33-.04.66-.04.7.04.26v.44l-.04.29.07.37-.04.59-.04.63v.85l.07,1.1.04.85.18.7.18.88.55.85.41.52.29.22.55.37.66.33.48.18.55.18.48.11.48.07.62.04h.29l.92.04,1.54-.11.63-.18.77-.26.7-.26.33-.29.44-.4.29-.37.15-.11.22-.4.18-.48.07-.33.07-.37.07-.44.07-.48v-.74l.07-.52-.04-.18.07-.26-.04-.4.04-.92v-.88l.07-.74v-.88l-.07-.52v-.44l-.04-.7v-1.43l-.04-.44v-1.14l-.04-.37-.04-.77v-.63l.07-1.03v-.85l-.04-.59v-.59l-.04-.85.07-.77.15-.7.29-.33.33-.15.52-.11.62-.07h.52l.51.11.59.22.55.48.18.77.07.59v.66l.04.59-.04.96v2.17l-.04.99-.07.59-.04.63v.59l.04.52-.04.74.04.96v2.69l-.04.66v.88l.04.81-.04.88-.04.55-.11.92-.11.74-.11.4-.26.88-.26.7-.33.63-.41.63-.55.92-.62.7-.15.11-.29.18-.37.18-.29.18-.59.26-.77.37-.7.22-.66.11-.44.15-2.13.33h-2.8l-.48-.15Z"/>
    <path d="M291.59,45.36l-.37-.22-.29-.26-.4-.44-.44-.62-.29-.37-.29-.4-.29-.44-.33-.48-.22-.37-.29-.37-.4-.59-.59-.66-.4-.52-.33-.48-.48-.59-.55-.66-.44-.63-.59-.7-.37-.52-.22-.29-.26-.18-.37-.26-.37-.18-.4-.07-.48-.07-.33.04-2.28-.07-.88.07-.74.26-.18.59-.07.99-.07.85-.04.44-.04.96v.74l.04,1.03-.04.29v.7l-.04.63v.77l-.07.51-.07.59-.18.37-.18.22-.22.11-.37.11h-.44l-.66.07-.81-.07-.4-.07-.37-.15-.33-.59-.18-.52v-.88l-.04-.88-.04-.37.11-1.43v-.88l-.04-.74-.07-.59v-2.5l.04-.7.04-.44-.04-.29v-1.69l.04-.7v-1.44l-.04-.77v-.52l.07-.37-.07-.44v-.74l-.04-.26.04-.22.04-.37v-.66l-.04-.15.07-.55v-1.77l-.07-.37.07-.37-.11-.7v-.66l.04-.74.15-.62.22-.33.22-.18.4-.22,1.07-.15,1.62.07,1.29-.04.85-.04h.59l.41.04.62-.04.85-.04,1.88.04h.48l.7-.04h1.69l.85.04,1.99.18.44.11.66.22.85.37.92.55.52.52.29.33.55.59.33.63.18.59.26.63.18.52.15.29.07.33.07.29-.04.44.04.48.04.88.04,1.14-.04.55-.07.29-.11.4-.15.4-.26.74-.37.85-.22.33-.22.37-.4.44-.37.33-.37.4-.62.4-.44.22-.63.44-.77.33-.22.22.04.18.04.15.22.37.4.66.51.63.37.44.18.33.29.33,1.1,1.58.4.52.44.59.37.44.29.48.4.52.26.66-.07.26-.15.48-.44.74-.52.33-.62.44-.81.33-.37-.07ZM286.62,30.83l.33-.04.4-.04.29-.04.37.04.33-.15.26-.11.33-.11.22-.18.26-.26.22-.29.29-.77.15-.77.07-.33.04-.55.07-.44-.07-.55-.18-.66-.18-.59-.44-.7-.63-.4-.51-.15-.7-.22-.7-.04-.55-.04-.33-.04h-.33l-.4-.04-.44.07h-2.46l-.52-.04h-.59l-.66.04-.55-.11h-1.14l-.88.11-.22.07-.11.26-.04.48-.04.96v1.18l-.04.85.04,1.18-.04,1.1.11.66.55.33.48.11.48.04.66-.07.41.07.81.04h.77l.22.04.81-.04h.99l1.55.15h1.25Z"/>
    <path d="M305.24,45.47l-.48-.11-.66-.33-.51-.4-.37-.44-.15-.44v-.66l.33-.66.22-.55.18-.4.22-.44.33-.77.22-.59.7-1.4.37-.81.33-.85.59-1.14.37-.85.26-.52.26-.55.29-.63.51-1.32.44-.77.29-.81.52-1.1.59-1.36.33-.74.55-1.4.4-.85.18-.55.33-.63.26-.52.07-.29.15-.37.18-.52.26-.37.22-.44.22-.4.15-.29.26-.44.44-.37.92-.18h.99l.48.11.4.37.26.48.22.44.37.85.37.81.7,1.36.22.59.26.48.22.66.29.66.18.52.26.52.4.92.41.81.26.66.26.44.15.4.26.55.33.59.22.59.22.63.22.37.18.48.37.66.29.74.48,1.14.66,1.25.37.88.26.55.15.33.15.48.44.88.33.7.18.29.33.7.26.77.18.63-.15.81-.41.48-.74.37-1.29.33-.85-.18-.33-.29-.37-.37-.11-.48-.33-.7-.4-.85-.22-.4-.33-.74-.41-.85-.15-.33-.26-.44-.33-.59-.26-.48-.37-.26-.74-.07-.92.04h-4.3l-1.21-.04-.96.07-.52-.04-.62.07-.59.04-.48.26-.22.33-.74,1.47-.37.66-.11.4-.18.37-.22.52-.29.63-.18.55-.37.59-.44.66-.4.33-.59.15-.62-.04ZM318.3,34.28l.04-.04.11-.04.15-.33-.11-.66-.22-.55-.81-1.43-.37-.7-.48-1.18-.29-.7-.26-.66-.4-.96-.44-.37-.29.59-.29.92-.62,1.4-.48.99-.33.92-.29.66-.37.74-.04.29-.07.33v.37l.26.26.62.04h.66l1.03.07,2.46.07.85-.04Z"/>
  </g>
</svg>